<svg xmlns="http://www.w3.org/2000/svg" xmlns:xlink="http://www.w3.org/1999/xlink" width="1500" zoomAndPan="magnify" viewBox="0 0 1125 899.99999" height="1200" preserveAspectRatio="xMidYMid meet" version="1.2"><defs><clipPath id="608855493d"><path d="M 37.480469 421.683594 L 79.328125 421.683594 L 79.328125 463.527344 L 37.480469 463.527344 Z M 37.480469 421.683594 "/></clipPath><clipPath id="0e7f655c47"><path d="M 58.40625 421.683594 C 46.851562 421.683594 37.480469 431.050781 37.480469 442.605469 C 37.480469 454.160156 46.851562 463.527344 58.40625 463.527344 C 69.960938 463.527344 79.328125 454.160156 79.328125 442.605469 C 79.328125 431.050781 69.960938 421.683594 58.40625 421.683594 Z M 58.40625 421.683594 "/></clipPath><clipPath id="ea4dcf686c"><path d="M 0.480469 0.683594 L 42.328125 0.683594 L 42.328125 42.527344 L 0.480469 42.527344 Z M 0.480469 0.683594 "/></clipPath><clipPath id="38eba60394"><path d="M 21.40625 0.683594 C 9.851562 0.683594 0.480469 10.050781 0.480469 21.605469 C 0.480469 33.160156 9.851562 42.527344 21.40625 42.527344 C 32.960938 42.527344 42.328125 33.160156 42.328125 21.605469 C 42.328125 10.050781 32.960938 0.683594 21.40625 0.683594 Z M 21.40625 0.683594 "/></clipPath><clipPath id="10d9cf73d8"><rect x="0" width="43" y="0" height="43"/></clipPath><clipPath id="d28ea29975"><path d="M 1045.671875 421.957031 L 1087.515625 421.957031 L 1087.515625 463.804688 L 1045.671875 463.804688 Z M 1045.671875 421.957031 "/></clipPath><clipPath id="39855aed7e"><path d="M 1066.59375 421.957031 C 1055.039062 421.957031 1045.671875 431.324219 1045.671875 442.878906 C 1045.671875 454.433594 1055.039062 463.804688 1066.59375 463.804688 C 1078.148438 463.804688 1087.515625 454.433594 1087.515625 442.878906 C 1087.515625 431.324219 1078.148438 421.957031 1066.59375 421.957031 Z M 1066.59375 421.957031 "/></clipPath><clipPath id="013ff10cc8"><path d="M 0.671875 0.957031 L 42.515625 0.957031 L 42.515625 42.804688 L 0.671875 42.804688 Z M 0.671875 0.957031 "/></clipPath><clipPath id="ef5950a19a"><path d="M 21.59375 0.957031 C 10.039062 0.957031 0.671875 10.324219 0.671875 21.878906 C 0.671875 33.433594 10.039062 42.804688 21.59375 42.804688 C 33.148438 42.804688 42.515625 33.433594 42.515625 21.878906 C 42.515625 10.324219 33.148438 0.957031 21.59375 0.957031 Z M 21.59375 0.957031 "/></clipPath><clipPath id="182d0cd58f"><rect x="0" width="43" y="0" height="43"/></clipPath></defs><g id="4a7d5c2fee"><g clip-rule="nonzero" clip-path="url(#608855493d)"><g clip-rule="nonzero" clip-path="url(#0e7f655c47)"><g transform="matrix(1,0,0,1,37,421)"><g clip-path="url(#10d9cf73d8)"><g clip-rule="nonzero" clip-path="url(#ea4dcf686c)"><g clip-rule="nonzero" clip-path="url(#38eba60394)"><path style=" stroke:none;fill-rule:nonzero;fill:#efddc8;fill-opacity:1;" d="M 0.480469 0.683594 L 42.328125 0.683594 L 42.328125 42.527344 L 0.480469 42.527344 Z M 0.480469 0.683594 "/></g></g></g></g></g></g><g style="fill:#fffcf8;fill-opacity:1;"><g transform="translate(110.690274, 540.082053)"><path style="stroke:none" d="M 188.21875 -35.140625 C 178.882812 -23.222656 167.566406 -14.09375 154.265625 -7.75 C 140.960938 -1.394531 126.765625 1.78125 111.671875 1.78125 C 94.003906 1.78125 77.726562 -2.679688 62.84375 -11.609375 C 47.75 -20.347656 35.832031 -32.363281 27.09375 -47.65625 C 18.363281 -62.738281 14 -79.21875 14 -97.09375 C 14 -114.957031 18.363281 -131.535156 27.09375 -146.828125 C 35.832031 -162.109375 47.75 -174.117188 62.84375 -182.859375 C 77.726562 -191.585938 94.003906 -195.953125 111.671875 -195.953125 C 125.578125 -195.953125 138.882812 -193.175781 151.59375 -187.625 C 164.289062 -181.863281 175.207031 -173.820312 184.34375 -163.5 L 165.875 -147.125 C 158.925781 -154.664062 150.6875 -160.617188 141.15625 -164.984375 C 131.632812 -169.148438 121.804688 -171.234375 111.671875 -171.234375 C 98.578125 -171.234375 86.46875 -167.960938 75.34375 -161.421875 C 64.03125 -154.660156 55.097656 -145.625 48.546875 -134.3125 C 41.992188 -122.800781 38.71875 -110.394531 38.71875 -97.09375 C 38.71875 -83.789062 41.992188 -71.476562 48.546875 -60.15625 C 55.097656 -48.644531 64.03125 -39.613281 75.34375 -33.0625 C 86.46875 -26.3125 98.578125 -22.9375 111.671875 -22.9375 C 122.796875 -22.9375 133.421875 -25.414062 143.546875 -30.375 C 153.472656 -35.144531 161.910156 -41.894531 168.859375 -50.625 Z M 188.21875 -35.140625 "/></g></g><g style="fill:#fffcf8;fill-opacity:1;"><g transform="translate(355.788079, 540.082053)"><path style="stroke:none" d="M 25.3125 -193.875 L 50.625 -193.875 L 50.625 -24.71875 L 149.203125 -24.71875 L 149.203125 0 L 25.3125 0 Z M 25.3125 -193.875 "/></g></g><g style="fill:#fffcf8;fill-opacity:1;"><g transform="translate(550.853828, 540.082053)"><path style="stroke:none" d="M 196.859375 -47.65625 C 187.921875 -32.363281 176.003906 -20.347656 161.109375 -11.609375 C 146.023438 -2.679688 129.648438 1.78125 111.984375 1.78125 C 94.109375 1.78125 77.726562 -2.679688 62.84375 -11.609375 C 47.75 -20.347656 35.832031 -32.363281 27.09375 -47.65625 C 18.363281 -62.738281 14 -79.21875 14 -97.09375 C 14 -114.757812 18.363281 -131.238281 27.09375 -146.53125 C 36.03125 -161.613281 48.046875 -173.625 63.140625 -182.5625 C 78.023438 -191.289062 94.304688 -195.65625 111.984375 -195.65625 C 129.453125 -195.65625 145.828125 -191.289062 161.109375 -182.5625 C 176.203125 -173.625 188.117188 -161.613281 196.859375 -146.53125 C 205.585938 -131.238281 209.953125 -114.757812 209.953125 -97.09375 C 209.953125 -79.414062 205.585938 -62.9375 196.859375 -47.65625 Z M 175.40625 -134.015625 C 168.851562 -145.328125 159.921875 -154.359375 148.609375 -161.109375 C 137.296875 -167.660156 125.085938 -170.9375 111.984375 -170.9375 C 98.679688 -170.9375 86.46875 -167.660156 75.34375 -161.109375 C 64.03125 -154.359375 55.097656 -145.328125 48.546875 -134.015625 C 41.992188 -122.703125 38.71875 -110.394531 38.71875 -97.09375 C 38.71875 -83.582031 41.992188 -71.171875 48.546875 -59.859375 C 55.097656 -48.546875 64.03125 -39.613281 75.34375 -33.0625 C 86.664062 -26.3125 98.878906 -22.9375 111.984375 -22.9375 C 125.484375 -22.9375 137.789062 -26.3125 148.90625 -33.0625 C 160.21875 -39.613281 169.148438 -48.546875 175.703125 -59.859375 C 182.054688 -71.171875 185.234375 -83.582031 185.234375 -97.09375 C 185.234375 -110.394531 181.957031 -122.703125 175.40625 -134.015625 Z M 175.40625 -134.015625 "/></g></g><g style="fill:#fffcf8;fill-opacity:1;"><g transform="translate(817.691672, 540.082053)"><path style="stroke:none" d="M 50.921875 -84.578125 L 50.921875 0 L 25.609375 0 L 25.609375 -193.875 L 50.921875 -193.875 L 50.921875 -109.59375 L 145.625 -109.59375 L 145.625 -193.875 L 170.640625 -193.875 L 170.640625 0 L 145.921875 0 L 145.625 -84.578125 Z M 50.921875 -84.578125 "/></g></g><g clip-rule="nonzero" clip-path="url(#d28ea29975)"><g clip-rule="nonzero" clip-path="url(#39855aed7e)"><g transform="matrix(1,0,0,1,1045,421)"><g clip-path="url(#182d0cd58f)"><g clip-rule="nonzero" clip-path="url(#013ff10cc8)"><g clip-rule="nonzero" clip-path="url(#ef5950a19a)"><path style=" stroke:none;fill-rule:nonzero;fill:#efddc8;fill-opacity:1;" d="M 0.671875 0.957031 L 42.515625 0.957031 L 42.515625 42.804688 L 0.671875 42.804688 Z M 0.671875 0.957031 "/></g></g></g></g></g></g></g></svg>